<svg width="60" height="60" viewBox="0 0 60 60" fill="none" xmlns="http://www.w3.org/2000/svg">
<path d="M10.3125 0C8.75391 0 7.5 1.25391 7.5 2.8125C7.5 7.37109 10.2422 9.77344 12.082 11.3789L12.2109 11.4961C14.1211 13.1602 15 14.0508 15 15.9375C15 17.4961 16.2539 18.75 17.8125 18.75C19.3711 18.75 20.625 17.4961 20.625 15.9375C20.625 11.3789 17.8828 8.97656 16.043 7.37109L15.9141 7.25391C14.0039 5.58984 13.125 4.69922 13.125 2.8125C13.125 1.25391 11.8711 0 10.3125 0ZM3.75 22.5C1.67578 22.5 0 24.1758 0 26.25V48.75C0 54.9609 5.03906 60 11.25 60H33.75C39.9609 60 45 54.9609 45 48.75H46.875C54.1289 48.75 60 42.8789 60 35.625C60 28.3711 54.1289 22.5 46.875 22.5H41.25H3.75ZM45 30H46.875C49.9805 30 52.5 32.5195 52.5 35.625C52.5 38.7305 49.9805 41.25 46.875 41.25H45V30ZM26.25 2.8125C26.25 1.25391 24.9961 0 23.4375 0C21.8789 0 20.625 1.25391 20.625 2.8125C20.625 7.37109 23.3672 9.77344 25.207 11.3789L25.3359 11.4961C27.2461 13.1602 28.125 14.0508 28.125 15.9375C28.125 17.4961 29.3789 18.75 30.9375 18.75C32.4961 18.75 33.75 17.4961 33.75 15.9375C33.75 11.3789 31.0078 8.97656 29.168 7.37109L29.0391 7.25391C27.1289 5.58984 26.25 4.69922 26.25 2.8125Z" fill="white"/>
</svg>
