<svg width="326" height="165" viewBox="0 0 326 165" fill="none" xmlns="http://www.w3.org/2000/svg">
<path d="M234.2 42.72V15.72H223.57V9.45996H252.57V15.72H241.89V42.72H234.2Z" fill="white"/>
<path d="M264.39 42.72H256.65V9.5H264.39V42.72ZM280 29.1H263.73V22.6H279.96L280 29.1ZM279.43 9.5H287.12V42.72H279.43V9.5Z" fill="white"/>
<path d="M302.64 36.55H320.73V42.72H295V9.5H320.11V15.67H302.64V36.55ZM302.07 22.83H318.07V28.83H302.07V22.83ZM303.26 6.83L309.67 0H317.6L309.05 6.83H303.26Z" fill="white"/>
<path d="M234.2 99.68V72.68H223.57V66.42H252.57V72.68H241.89V99.68H234.2Z" fill="white"/>
<path d="M256.65 99.68V66.42H264.39V99.64L256.65 99.68Z" fill="white"/>
<path d="M272.22 99.68V66.42H286.6C289.236 66.3548 291.856 66.8455 294.29 67.86C296.33 68.7246 298.069 70.1717 299.29 72.02C300.233 73.4242 300.855 75.0188 301.112 76.6906C301.37 78.3624 301.256 80.0703 300.778 81.693C300.301 83.3157 299.472 84.8134 298.351 86.0798C297.23 87.3461 295.843 88.3499 294.29 89.02C291.861 90.0545 289.239 90.5558 286.6 90.49H276.44L279.95 87.03V99.65L272.22 99.68ZM279.95 87.91L276.44 84.26H286.17C288.067 84.3943 289.95 83.8562 291.49 82.74C292.095 82.21 292.572 81.5491 292.884 80.8076C293.195 80.066 293.334 79.2632 293.29 78.46C293.337 77.6624 293.198 76.8648 292.886 76.1294C292.574 75.3939 292.096 74.7405 291.49 74.22C289.946 73.1155 288.064 72.585 286.17 72.72H276.44L279.95 69.07V87.91Z" fill="white"/>
<path d="M234.2 156.64V129.64H223.57V123.42H252.57V129.69H241.89V156.69L234.2 156.64Z" fill="white"/>
<path d="M272.31 157.21C269.832 157.234 267.371 156.8 265.05 155.93C262.905 155.112 260.938 153.886 259.26 152.32C257.622 150.785 256.321 148.925 255.44 146.86C253.637 142.475 253.637 137.555 255.44 133.17C256.329 131.115 257.629 129.264 259.26 127.73C260.931 126.166 262.891 124.943 265.03 124.13C267.342 123.253 269.798 122.819 272.27 122.85C274.736 122.825 277.186 123.248 279.5 124.1C281.642 124.903 283.603 126.124 285.27 127.69C286.908 129.225 288.209 131.085 289.09 133.15C290.907 137.55 290.907 142.49 289.09 146.89C288.212 148.963 286.911 150.829 285.27 152.37C283.602 153.933 281.641 155.15 279.5 155.95C277.201 156.808 274.764 157.235 272.31 157.21ZM272.31 150.71C273.716 150.726 275.111 150.458 276.41 149.92C277.65 149.408 278.773 148.65 279.71 147.69C280.665 146.726 281.417 145.58 281.92 144.32C282.96 141.551 282.96 138.499 281.92 135.73C281.412 134.472 280.661 133.327 279.71 132.36C278.771 131.403 277.648 130.645 276.41 130.13C275.109 129.6 273.715 129.335 272.31 129.35C270.895 129.335 269.492 129.6 268.18 130.13C266.937 130.635 265.813 131.395 264.88 132.36C263.942 133.333 263.198 134.477 262.69 135.73C261.65 138.499 261.65 141.551 262.69 144.32C263.193 145.575 263.937 146.72 264.88 147.69C265.81 148.658 266.935 149.418 268.18 149.92C269.477 150.453 270.868 150.721 272.27 150.71H272.31Z" fill="white"/>
<path d="M296.24 156.64V123.42H310.62C313.257 123.358 315.877 123.852 318.31 124.87C320.35 125.735 322.089 127.182 323.31 129.03C324.253 130.434 324.875 132.029 325.132 133.701C325.39 135.372 325.276 137.08 324.798 138.703C324.321 140.326 323.492 141.823 322.371 143.09C321.25 144.356 319.863 145.36 318.31 146.03C315.881 147.064 313.259 147.566 310.62 147.5H300.46L303.97 144.04V156.66L296.24 156.64ZM303.97 144.87L300.46 141.21H310.19C312.085 141.345 313.968 140.811 315.51 139.7C316.115 139.17 316.592 138.509 316.904 137.768C317.215 137.026 317.354 136.223 317.31 135.42C317.357 134.622 317.218 133.825 316.906 133.089C316.594 132.354 316.116 131.701 315.51 131.18C313.965 130.077 312.084 129.547 310.19 129.68H300.46L303.97 126.03V144.87Z" fill="white"/>
<path d="M71.18 7.57007C68.39 11.7601 65.18 15.9001 63.5 20.2401C58.09 34.4001 62.92 47.5101 76.19 59.7101C83.89 66.7901 91.09 73.9601 94.87 81.9501C99.1033 90.9301 97.66 99.7934 90.54 108.54C89.8751 109.213 89.1633 109.838 88.41 110.41C89.41 106.57 88.19 103.11 87.47 99.6601C86.6018 95.9327 85.0414 92.4015 82.87 89.2501C77.4 80.9401 68.61 73.4501 61.57 65.5301C54.26 57.3201 48.89 48.8301 49.44 39.5301C50.14 27.7201 58.46 15.3601 71.18 7.57007Z" fill="white"/>
<path d="M101.04 7.57007C98.25 11.7601 95.04 15.9001 93.36 20.2401C87.95 34.4001 92.78 47.5101 106.05 59.7101C113.75 66.7901 120.95 73.9601 124.72 81.9501C128.96 90.9301 127.52 99.7934 120.4 108.54C119.734 109.215 119.018 109.84 118.26 110.41C119.26 106.57 118.05 103.11 117.33 99.6601C116.462 95.9327 114.901 92.4015 112.73 89.2501C107.26 80.9401 98.47 73.4501 91.42 65.5301C84.12 57.3201 78.74 48.8301 79.3 39.5301C80 27.7201 88.32 15.3601 101.04 7.57007Z" fill="white"/>
<path d="M180.63 70.71C180.385 93.4412 171.184 115.158 155.023 131.146C138.862 147.134 117.048 156.101 94.315 156.101C71.5824 156.101 49.7675 147.134 33.6069 131.146C17.4463 115.158 8.24467 93.4412 8 70.71" stroke="white" stroke-width="16" stroke-miterlimit="10" stroke-linecap="round"/>
</svg>
